<?xml version="1.0" encoding="utf-8"?>
<!-- Generator: Adobe Illustrator 27.5.0, SVG Export Plug-In . SVG Version: 6.00 Build 0)  -->
<svg version="1.1" xmlns="http://www.w3.org/2000/svg" xmlns:xlink="http://www.w3.org/1999/xlink" x="0px" y="0px"
	 viewBox="0 0 500 500" style="enable-background:new 0 0 500 500;" xml:space="preserve">
<g id="BACKGROUND">
	<rect id="BACKGROUND_1_" style="fill:#FFE5BD;" width="500" height="500"/>
</g>
<g id="OBJECTS">
	<g>
		<path style="fill:#FFFFFF;stroke:#592310;stroke-width:0.75;stroke-miterlimit:10;" d="M380.341,133.044h-77.113
			c1.057-3.089,3.987-5.307,7.434-5.307c1.27,0,2.47,0.304,3.533,0.839c0.493-4.761,4.52-8.476,9.414-8.476
			c1.499,0,2.914,0.348,4.174,0.969c1.151-5.26,5.834-9.198,11.437-9.198c5.936,0,10.835,4.413,11.603,10.136
			c1.585-1.198,3.556-1.907,5.696-1.907c4.637,0,8.491,3.333,9.302,7.733c1.532-1.068,3.395-1.696,5.405-1.696
			C375.567,126.138,379.227,129.06,380.341,133.044z"/>
		<path style="fill:#FFFFFF;stroke:#592310;stroke-width:0.75;stroke-miterlimit:10;" d="M220.221,61.029h-97.758
			c1.34-3.915,5.055-6.728,9.425-6.728c1.61,0,3.132,0.385,4.479,1.064c0.626-6.036,5.73-10.745,11.934-10.745
			c1.9,0,3.695,0.441,5.292,1.228c1.459-6.668,7.396-11.66,14.499-11.66c7.524,0,13.735,5.595,14.71,12.849
			c2.009-1.518,4.508-2.417,7.221-2.417c5.878,0,10.765,4.225,11.792,9.803c1.943-1.353,4.304-2.15,6.853-2.15
			C214.168,52.273,218.808,55.978,220.221,61.029z"/>
	</g>
	<g>
		<defs>
			<rect id="SVGID_1_" width="500" height="500"/>
		</defs>
		<clipPath id="SVGID_00000049926179932694380910000007126218534357210046_">
			<use xlink:href="#SVGID_1_"  style="overflow:visible;"/>
		</clipPath>
		<g style="clip-path:url(#SVGID_00000049926179932694380910000007126218534357210046_);">
			<g>
				<g>
					<rect x="27.294" y="-0.037" style="fill:#FFCF83;" width="10.061" height="500.037"/>
					<rect x="96.602" y="-0.037" style="fill:#FFCF83;" width="10.061" height="500.037"/>
				</g>
				<g>
					
						<polyline style="fill:none;stroke:#FFCF83;stroke-width:4;stroke-linecap:round;stroke-linejoin:round;stroke-miterlimit:10;" points="
						37.355,41.309 66.865,-0.265 96.375,41.309 					"/>
					
						<polyline style="fill:none;stroke:#FFCF83;stroke-width:4;stroke-linecap:round;stroke-linejoin:round;stroke-miterlimit:10;" points="
						37.355,41.539 66.865,83.113 96.375,41.539 					"/>
				</g>
				<g>
					
						<polyline style="fill:none;stroke:#FFCF83;stroke-width:4;stroke-linecap:round;stroke-linejoin:round;stroke-miterlimit:10;" points="
						37.355,124.687 66.865,83.113 96.375,124.687 					"/>
					
						<polyline style="fill:none;stroke:#FFCF83;stroke-width:4;stroke-linecap:round;stroke-linejoin:round;stroke-miterlimit:10;" points="
						37.355,124.916 66.865,166.49 96.375,124.916 					"/>
				</g>
				<g>
					
						<polyline style="fill:none;stroke:#FFCF83;stroke-width:4;stroke-linecap:round;stroke-linejoin:round;stroke-miterlimit:10;" points="
						37.355,208.064 66.865,166.49 96.375,208.064 					"/>
					
						<polyline style="fill:none;stroke:#FFCF83;stroke-width:4;stroke-linecap:round;stroke-linejoin:round;stroke-miterlimit:10;" points="
						37.355,208.294 66.865,249.868 96.375,208.294 					"/>
				</g>
				<g>
					
						<polyline style="fill:none;stroke:#FFCF83;stroke-width:4;stroke-linecap:round;stroke-linejoin:round;stroke-miterlimit:10;" points="
						37.355,291.442 66.865,249.868 96.375,291.442 					"/>
					
						<polyline style="fill:none;stroke:#FFCF83;stroke-width:4;stroke-linecap:round;stroke-linejoin:round;stroke-miterlimit:10;" points="
						37.355,291.671 66.865,333.245 96.375,291.671 					"/>
				</g>
				<g>
					
						<polyline style="fill:none;stroke:#FFCF83;stroke-width:4;stroke-linecap:round;stroke-linejoin:round;stroke-miterlimit:10;" points="
						37.355,374.819 66.865,333.245 96.375,374.819 					"/>
					
						<polyline style="fill:none;stroke:#FFCF83;stroke-width:4;stroke-linecap:round;stroke-linejoin:round;stroke-miterlimit:10;" points="
						37.355,375.049 66.865,416.622 96.375,375.049 					"/>
				</g>
				<g>
					
						<polyline style="fill:none;stroke:#FFCF83;stroke-width:4;stroke-linecap:round;stroke-linejoin:round;stroke-miterlimit:10;" points="
						37.355,458.197 66.865,416.622 96.375,458.197 					"/>
					
						<polyline style="fill:none;stroke:#FFCF83;stroke-width:4;stroke-linecap:round;stroke-linejoin:round;stroke-miterlimit:10;" points="
						37.355,458.426 66.865,500 96.375,458.426 					"/>
				</g>
			</g>
			<g>
				<g>
					<rect x="390.537" y="-0.037" style="fill:#FFCF83;" width="10.061" height="500.037"/>
					<rect x="459.845" y="-0.037" style="fill:#FFCF83;" width="10.061" height="500.037"/>
				</g>
				<g>
					
						<polyline style="fill:none;stroke:#FFCF83;stroke-width:4;stroke-linecap:round;stroke-linejoin:round;stroke-miterlimit:10;" points="
						400.598,41.309 430.108,-0.265 459.619,41.309 					"/>
					
						<polyline style="fill:none;stroke:#FFCF83;stroke-width:4;stroke-linecap:round;stroke-linejoin:round;stroke-miterlimit:10;" points="
						400.598,41.539 430.108,83.113 459.619,41.539 					"/>
				</g>
				<g>
					
						<polyline style="fill:none;stroke:#FFCF83;stroke-width:4;stroke-linecap:round;stroke-linejoin:round;stroke-miterlimit:10;" points="
						400.598,124.687 430.108,83.113 459.619,124.687 					"/>
					
						<polyline style="fill:none;stroke:#FFCF83;stroke-width:4;stroke-linecap:round;stroke-linejoin:round;stroke-miterlimit:10;" points="
						400.598,124.916 430.108,166.49 459.619,124.916 					"/>
				</g>
				<g>
					
						<polyline style="fill:none;stroke:#FFCF83;stroke-width:4;stroke-linecap:round;stroke-linejoin:round;stroke-miterlimit:10;" points="
						400.598,208.064 430.108,166.49 459.619,208.064 					"/>
					
						<polyline style="fill:none;stroke:#FFCF83;stroke-width:4;stroke-linecap:round;stroke-linejoin:round;stroke-miterlimit:10;" points="
						400.598,208.294 430.108,249.868 459.619,208.294 					"/>
				</g>
				<g>
					
						<polyline style="fill:none;stroke:#FFCF83;stroke-width:4;stroke-linecap:round;stroke-linejoin:round;stroke-miterlimit:10;" points="
						400.598,291.442 430.108,249.868 459.619,291.442 					"/>
					
						<polyline style="fill:none;stroke:#FFCF83;stroke-width:4;stroke-linecap:round;stroke-linejoin:round;stroke-miterlimit:10;" points="
						400.598,291.671 430.108,333.245 459.619,291.671 					"/>
				</g>
				<g>
					
						<polyline style="fill:none;stroke:#FFCF83;stroke-width:4;stroke-linecap:round;stroke-linejoin:round;stroke-miterlimit:10;" points="
						400.598,374.819 430.108,333.245 459.619,374.819 					"/>
					
						<polyline style="fill:none;stroke:#FFCF83;stroke-width:4;stroke-linecap:round;stroke-linejoin:round;stroke-miterlimit:10;" points="
						400.598,375.049 430.108,416.622 459.619,375.049 					"/>
				</g>
				<g>
					
						<polyline style="fill:none;stroke:#FFCF83;stroke-width:4;stroke-linecap:round;stroke-linejoin:round;stroke-miterlimit:10;" points="
						400.598,458.197 430.108,416.622 459.619,458.197 					"/>
					
						<polyline style="fill:none;stroke:#FFCF83;stroke-width:4;stroke-linecap:round;stroke-linejoin:round;stroke-miterlimit:10;" points="
						400.598,458.426 430.108,500 459.619,458.426 					"/>
				</g>
			</g>
		</g>
	</g>
	<g>
		<defs>
			<rect id="SVGID_00000005969642875012043230000000882150526076684160_" width="500" height="500"/>
		</defs>
		<clipPath id="SVGID_00000113349923856879347190000007396988955725823886_">
			<use xlink:href="#SVGID_00000005969642875012043230000000882150526076684160_"  style="overflow:visible;"/>
		</clipPath>
		<g style="clip-path:url(#SVGID_00000113349923856879347190000007396988955725823886_);">
			<g>
				
					<path style="fill:#E58811;stroke:#592310;stroke-width:0.75;stroke-linecap:round;stroke-linejoin:round;stroke-miterlimit:10;" d="
					M457.996,585.94c-17.121,0-31-13.879-31-31v-91.578c0-26.542-21.593-48.135-48.135-48.135h-115.46c-17.121,0-31-13.879-31-31
					s13.879-31,31-31h115.46c60.729,0,110.135,49.406,110.135,110.135v91.578C488.996,572.061,475.117,585.94,457.996,585.94z"/>
			</g>
			<g>
				
					<path style="fill:#FFE900;stroke:#592310;stroke-width:0.75;stroke-linecap:round;stroke-linejoin:round;stroke-miterlimit:10;" d="
					M348.375,417.632L348.375,417.632c-1.791,0-3.243-1.452-3.243-3.243v-60.324c0-1.791,1.452-3.243,3.243-3.243l0,0
					c1.791,0,3.243,1.452,3.243,3.243v60.324C351.618,416.18,350.166,417.632,348.375,417.632z"/>
				
					<path style="fill:#FFE900;stroke:#592310;stroke-width:0.75;stroke-linecap:round;stroke-linejoin:round;stroke-miterlimit:10;" d="
					M358.861,417.632L358.861,417.632c-1.791,0-3.243-1.452-3.243-3.243v-60.324c0-1.791,1.452-3.243,3.243-3.243l0,0
					c1.791,0,3.243,1.452,3.243,3.243v60.324C362.105,416.18,360.653,417.632,358.861,417.632z"/>
			</g>
			<g>
				
					<path style="fill:#FFE900;stroke:#592310;stroke-width:0.75;stroke-linecap:round;stroke-linejoin:round;stroke-miterlimit:10;" d="
					M424.78,485.902L424.78,485.902c0-1.791,1.452-3.243,3.243-3.243h60.324c1.791,0,3.243,1.452,3.243,3.243l0,0
					c0,1.791-1.452,3.243-3.243,3.243h-60.324C426.232,489.146,424.78,487.694,424.78,485.902z"/>
				
					<path style="fill:#FFE900;stroke:#592310;stroke-width:0.75;stroke-linecap:round;stroke-linejoin:round;stroke-miterlimit:10;" d="
					M424.78,475.133L424.78,475.133c0-1.791,1.452-3.243,3.243-3.243h60.324c1.791,0,3.243,1.452,3.243,3.243l0,0
					c0,1.791-1.452,3.243-3.243,3.243h-60.324C426.232,478.376,424.78,476.924,424.78,475.133z"/>
			</g>
		</g>
		<g style="clip-path:url(#SVGID_00000113349923856879347190000007396988955725823886_);">
			
				<rect x="8.483" y="405.99" style="fill:#E58811;stroke:#592310;stroke-width:0.75;stroke-linecap:round;stroke-linejoin:round;stroke-miterlimit:10;" width="146.132" height="98.091"/>
			
				<rect x="76.283" y="405.99" style="fill:#FFE900;stroke:#592310;stroke-width:0.75;stroke-linecap:round;stroke-linejoin:round;stroke-miterlimit:10;" width="78.332" height="98.091"/>
			
				<rect x="82.501" y="413.037" style="fill:#7DD4BE;stroke:#592310;stroke-width:0.75;stroke-linecap:round;stroke-linejoin:round;stroke-miterlimit:10;" width="65.658" height="91.047"/>
			
				<rect x="98.851" y="413.653" transform="matrix(-1.836970e-16 1 -1 -1.836970e-16 534.378 322.7292)" style="fill:#E58811;stroke:#592310;stroke-width:0.75;stroke-linecap:round;stroke-linejoin:round;stroke-miterlimit:10;" width="13.947" height="29.801"/>
			
				<circle style="fill:#E58811;stroke:#592310;stroke-width:0.75;stroke-linecap:round;stroke-linejoin:round;stroke-miterlimit:10;" cx="133.917" cy="428.554" r="6.973"/>
			
				<line style="fill:none;stroke:#592310;stroke-width:0.75;stroke-linecap:round;stroke-linejoin:round;stroke-miterlimit:10;" x1="90.924" y1="442.885" x2="140.89" y2="442.885"/>
			
				<line style="fill:none;stroke:#592310;stroke-width:0.75;stroke-linecap:round;stroke-linejoin:round;stroke-miterlimit:10;" x1="90.924" y1="451.384" x2="140.89" y2="451.384"/>
			
				<line style="fill:none;stroke:#592310;stroke-width:0.75;stroke-linecap:round;stroke-linejoin:round;stroke-miterlimit:10;" x1="90.924" y1="459.882" x2="140.89" y2="459.882"/>
			
				<line style="fill:none;stroke:#592310;stroke-width:0.75;stroke-linecap:round;stroke-linejoin:round;stroke-miterlimit:10;" x1="90.924" y1="468.381" x2="140.89" y2="468.381"/>
			
				<line style="fill:none;stroke:#592310;stroke-width:0.75;stroke-linecap:round;stroke-linejoin:round;stroke-miterlimit:10;" x1="90.924" y1="476.879" x2="140.89" y2="476.879"/>
			
				<line style="fill:none;stroke:#592310;stroke-width:0.75;stroke-linecap:round;stroke-linejoin:round;stroke-miterlimit:10;" x1="90.924" y1="485.378" x2="140.89" y2="485.378"/>
			
				<line style="fill:none;stroke:#592310;stroke-width:0.75;stroke-linecap:round;stroke-linejoin:round;stroke-miterlimit:10;" x1="90.924" y1="493.876" x2="140.89" y2="493.876"/>
		</g>
	</g>
	<g>
		<defs>
			<rect id="SVGID_00000118365596877939964740000005242326947403760319_" width="500" height="500"/>
		</defs>
		<clipPath id="SVGID_00000028291645404186806550000016409304117662141355_">
			<use xlink:href="#SVGID_00000118365596877939964740000005242326947403760319_"  style="overflow:visible;"/>
		</clipPath>
		<g style="clip-path:url(#SVGID_00000028291645404186806550000016409304117662141355_);">
			
				<path style="fill:#E58811;stroke:#592310;stroke-width:0.75;stroke-linecap:round;stroke-linejoin:round;stroke-miterlimit:10;" d="
				M219.545,267.866c0,0-26.232,11.391-27.268,11.736c-1.035,0.345,0,71.103,54.881,71.103c54.881,0,42.8-76.686,42.8-76.686
				L219.545,267.866z"/>
			<g>
				<defs>
					<path id="XMLID_1_" d="M214.907,238.975c0,7.19,0.045,14.38,0.126,21.569c0.061,5.365,0.138,10.731,0.299,16.094
						c0.059,1.954-0.273,4.479,0.283,6.369c0.863,2.931,3.711,6.23,5.832,8.447c1.921,2.008,4.155,3.747,6.691,4.998
						c5.665,2.793,12.446,2.991,18.65,1.59c6.892-1.556,13.265-5.092,18.172-9.962c2.049-2.034,5.382-5.245,5.841-8.151
						c0.371-2.355-0.218-5.333-0.183-7.772c0.15-10.637,0.311-21.274,0.444-31.911c0.008-0.647,0.023-1.295,0.023-1.943
						C271.086,237.211,214.907,238.975,214.907,238.975z"/>
				</defs>
				<use xlink:href="#XMLID_1_"  style="overflow:visible;fill:#FAB996;"/>
				<clipPath id="XMLID_00000013180998781705651620000013805754671455505585_">
					<use xlink:href="#XMLID_1_"  style="overflow:visible;"/>
				</clipPath>
				<path style="clip-path:url(#XMLID_00000013180998781705651620000013805754671455505585_);fill:#F2A07C;" d="M231.872,275.803
					c14.845,8.491,33.583,10.803,49.342,4.16c15.758-6.643,27.577-22.863,27.095-39.958c-0.262-9.263-3.894-18.165-8.801-26.026
					c-9.145-14.651-23.685-26.674-40.737-29.419c-14.448-2.326-29.869,2.451-40.473,12.537
					C190.716,223.333,201.6,258.487,231.872,275.803z"/>
				
					<use xlink:href="#XMLID_1_"  style="overflow:visible;fill:none;stroke:#592310;stroke-width:0.75;stroke-linecap:round;stroke-linejoin:round;stroke-miterlimit:10;"/>
			</g>
			
				<path style="fill:#057CCC;stroke:#592310;stroke-width:0.75;stroke-linecap:round;stroke-linejoin:round;stroke-miterlimit:10;" d="
				M171.68,288.325c-0.894-0.512-16.068,11.47-16.859,12.155c-5.618,4.863-10.74,10.162-14.186,16.803
				c-12.215,23.544-21.17,47.912-30.231,72.754c-1.411,3.868-4.09,7.11-5.131,11.092c-1.455,5.566-1.645,11.959-1.635,17.691
				c0.012,7.215,0.631,17.941,8.016,21.758c5.166,2.67,13.012,5.969,18.966,4.478c9.793-2.452,15.57-9.867,20.82-17.716
				c6.336-9.47,12.516-19.044,18.537-28.717c0.646-1.037,1.298-2.094,1.622-3.272c0.346-1.258,0.301-2.586,0.252-3.89
				c-0.388-10.437-1.171-20.849-0.428-31.257c0.794-11.115,1.289-22.257,1.228-33.403
				C172.608,318.636,180.485,293.452,171.68,288.325z"/>
			
				<path style="fill:#057CCC;stroke:#592310;stroke-width:0.75;stroke-linecap:round;stroke-linejoin:round;stroke-miterlimit:10;" d="
				M214.889,252.904c-0.849,0.628,0.175,6.914,0.218,7.847c0.151,3.327,0.378,6.65,0.619,9.972
				c0.481,6.635,0.053,17.383,4.234,23.028c4.554,6.149,21.612,38.713,21.623,38.03c0.011-0.683,17.09-34.841,19.823-36.436
				c2.733-1.594,9.168-18.26,9.168-18.26s0.395-29.427,0.395-29.426c3.021,1.155,6.191,2.425,8.845,4.296
				c4.136,2.917,6.666,7.369,9.341,11.54c0.262,0.409,0.54,0.833,0.961,1.076c0.616,0.355,1.384,0.242,2.085,0.122
				c22.048-3.748,44.984-2.162,66.306,4.586c0.473,0.15,0.97,0.318,1.295,0.692c0.311,0.358,0.414,0.848,0.483,1.317
				c0.749,5.11-0.021,11.106-0.097,16.296c-0.061,4.205,0.001,8.464-0.341,12.659c-3.209,39.28-16.715,77.095-19.445,116.721
				c-2.403,34.89,0.866,70.74,14.568,102.917c0.655,1.539,1.318,3.378,0.427,4.793c-0.514,0.817-1.433,1.272-2.31,1.675
				c-28.244,12.981-64.538,12.119-95.124,11.764c-12.896-0.149-25.515-1.639-38.336-2.616c-6.996-0.533-19.563,4.102-24.998-0.146
				c-6.922-5.411-6.137-28.13-7.349-36.319c-2.015-13.609-4.029-27.218-6.044-40.828c-3.793-25.62-7.585-51.239-11.378-76.859
				c-0.986-6.659-1.993-13.411-3.266-19.98c-1.404-7.249-1.458-14.668-1.636-22.022c-0.176-7.749-0.508-15.494-0.626-23.245
				c-0.116-7.581,0.76-15.292,0.433-22.83c-0.006-0.139-0.011-0.284,0.051-0.408c0.063-0.128,0.187-0.213,0.306-0.293
				c3.769-2.524,7.406-4.834,11.54-6.69c5.048-2.266,10.283-4.107,15.256-6.541c2.589-1.267,6.053-1.129,7.943-3.653
				c0.781-1.042,1.113-2.342,1.453-3.599c1.073-3.962,2.429-7.928,4.862-11.234C208.511,257.671,211.725,255.263,214.889,252.904z"
				/>
			<g>
				
					<path style="fill:#FAB996;stroke:#592310;stroke-width:0.75;stroke-linecap:round;stroke-linejoin:round;stroke-miterlimit:10;" d="
					M255.519,264.597c6.887-2.26,13.339-6.294,18.692-11.092c4.874-4.368,8.831-9.744,11.603-15.67
					c2.994-6.399,3.508-12.656,3.561-19.661c0.052-6.868,0.756-13.814,0.756-20.722c0.165-5.694-0.479-11.365-0.568-17.08
					c-0.983-63.032-46.272-62.91-46.272-62.91c-24.938,2.646-42.001,26.307-46.409,49.216c-2.553,13.27-3.519,26.806-2.849,40.305
					c0.258,5.201,0.278,10.422,0.87,15.602c1.38,12.079,7.39,23.148,16.611,31.042c8.691,7.441,21.775,13.702,33.422,12.901
					C248.563,266.277,252.05,265.735,255.519,264.597z"/>
				
					<path style="fill:#682E1C;stroke:#592310;stroke-width:0.75;stroke-linecap:round;stroke-linejoin:round;stroke-miterlimit:10;" d="
					M212.081,167.683c-1.455,0.795-2.926,1.56-4.412,2.296c-4.148,2.053-6.428,3.627-7.848,7.979
					c-1.626,4.98-3.01,9.647-3.083,14.953c-0.067,4.859,1.964,8.346,0.027,13.123c-0.147,0.363-2.65,4.302-2.743,4.095
					c-1.008-2.249-1.898-4.631-3.142-6.751c-0.788-1.343-2.099-2.643-2.551-4.198c-1.524-5.248-1.613-11.91-1.649-17.366
					c-0.075-11.523,1.004-24.593,7.518-34.474c6.615-10.033,20.736-16.436,32.572-13.385c8.026,2.069,10.502,10.485,6.398,17.391
					c-2.196,3.695-5.66,6.444-9.173,8.92C220.169,162.961,216.189,165.439,212.081,167.683z"/>
				
					<path style="fill:#682E1C;stroke:#592310;stroke-width:0.75;stroke-linecap:round;stroke-linejoin:round;stroke-miterlimit:10;" d="
					M291.365,204.004c0.927-2.507,1.96-4.975,2.727-7.707c1.737-6.189,3.189-12.556,2.626-19.027
					c-0.519-5.963-1.806-12.033-4.136-17.564c-0.875-2.077-2.205-4.029-3.625-5.765c-2.158-2.638-5.661-3.094-8.502-4.581
					c-3.293-1.724-6.164-4.222-9.584-5.855c-7.16-3.42-15.095-5.229-23.033-5.173c-4.66,0.034-9.442,0.735-13.485,3.054
					c-5.584,3.203-0.645,6.991,2.333,9.916c3.538,3.475,7.322,6.699,11.31,9.646c8.098,5.983,17.042,10.822,26.497,14.288
					c0.921,0.338,1.415,10.518,1.634,11.9c0.866,5.486,1.679,11.454,5.624,15.364c1.422,1.409,3.165,2.447,4.672,3.765
					c1.506,1.318,2.824,3.053,2.939,5.051C289.738,208.685,290.506,206.328,291.365,204.004z"/>
				<g>
					
						<path style="fill:#FAB996;stroke:#592310;stroke-width:0.75;stroke-linecap:round;stroke-linejoin:round;stroke-miterlimit:10;" d="
						M288.297,228.696c-0.09,0.52,1.475-0.126,1.608-0.179c1.538-0.612,2.985-1.527,4.342-2.463
						c3.268-2.255,6.267-5.342,7.694-9.116c0.793-2.098,1.177-4.327,1.472-6.551c0.292-2.199,0.501-4.437,0.159-6.629
						c-0.341-2.192-1.284-4.357-2.971-5.798c-1.649-1.41-4.762-2.278-6.708-0.945c-1.899,1.301-3.792,4.864-3.918,7.128
						C289.975,204.143,288.758,226.031,288.297,228.696z"/>
					<g>
						
							<path style="fill:none;stroke:#592310;stroke-width:0.75;stroke-linecap:round;stroke-linejoin:round;stroke-miterlimit:10;" d="
							M293.279,211.632c0.844-0.848,2.035-1.265,3.171-1.109c1.136,0.155,2.196,0.88,2.823,1.928"/>
						
							<path style="fill:none;stroke:#592310;stroke-width:0.75;stroke-linecap:round;stroke-linejoin:round;stroke-miterlimit:10;" d="
							M297.626,204.128c-3.1,1.995-5.473,6.749-4.57,10.685c0.184,0.802,0.513,1.582,1.051,2.163"/>
					</g>
				</g>
				<g>
					
						<path style="fill:#FAB996;stroke:#592310;stroke-width:0.75;stroke-linecap:round;stroke-linejoin:round;stroke-miterlimit:10;" d="
						M195.865,228.696c0.09,0.52-1.475-0.126-1.608-0.179c-1.538-0.612-2.985-1.527-4.342-2.463
						c-3.268-2.255-6.267-5.342-7.693-9.116c-0.793-2.098-1.177-4.327-1.472-6.551c-0.292-2.199-0.5-4.437-0.159-6.629
						c0.341-2.192,1.285-4.357,2.971-5.798c1.649-1.41,4.762-2.278,6.708-0.945c1.899,1.301,3.792,4.864,3.918,7.128
						C194.186,204.143,195.403,226.031,195.865,228.696z"/>
					<g>
						
							<path style="fill:none;stroke:#592310;stroke-width:0.75;stroke-linecap:round;stroke-linejoin:round;stroke-miterlimit:10;" d="
							M190.882,211.632c-0.844-0.848-2.035-1.265-3.171-1.109c-1.136,0.155-2.196,0.88-2.823,1.928"/>
						
							<path style="fill:none;stroke:#592310;stroke-width:0.75;stroke-linecap:round;stroke-linejoin:round;stroke-miterlimit:10;" d="
							M186.535,204.128c3.1,1.995,5.473,6.749,4.57,10.685c-0.184,0.802-0.513,1.582-1.051,2.163"/>
					</g>
				</g>
				<g>
					
						<path style="fill:#682E1C;stroke:#592310;stroke-width:0.75;stroke-linecap:round;stroke-linejoin:round;stroke-miterlimit:10;" d="
						M224.859,182.337c-3.986-0.3-8.009-0.518-11.984-0.009c-1.708,0.219-3.593,0.363-4.918,1.492
						c-0.658,0.562-2.86,2.206-2.828,3.182c0.041,1.237,9.233,0.402,10.493,0.373c4.229-0.097,8.458-0.194,12.687-0.291
						c0.757-0.017,1.621-0.087,2.08-0.688c0.324-0.424,0.347-1.02,0.186-1.529c-0.291-0.922-1.113-1.599-2.012-1.954
						c-0.899-0.355-1.879-0.436-2.843-0.511C225.433,182.38,225.146,182.358,224.859,182.337z"/>
					
						<path style="fill:#682E1C;stroke:#592310;stroke-width:0.75;stroke-linecap:round;stroke-linejoin:round;stroke-miterlimit:10;" d="
						M256.073,182.337c3.986-0.3,8.009-0.518,11.984-0.009c1.708,0.219,3.593,0.363,4.918,1.492
						c0.658,0.562,2.859,2.206,2.828,3.182c-0.04,1.237-9.233,0.402-10.493,0.373c-4.229-0.097-8.458-0.194-12.687-0.291
						c-0.757-0.017-1.621-0.087-2.08-0.688c-0.324-0.424-0.347-1.02-0.186-1.529c0.291-0.922,1.113-1.599,2.012-1.954
						c0.899-0.355,1.879-0.436,2.843-0.511C255.499,182.38,255.786,182.358,256.073,182.337z"/>
				</g>
				
					<path style="fill:none;stroke:#592310;stroke-width:0.75;stroke-linecap:round;stroke-linejoin:round;stroke-miterlimit:10;" d="
					M234.374,223.714c1.71,2.376,5.596,2.655,8.261,2.475c3.05-0.206,6.249-0.794,8.451-3.212"/>
				<g>
					<g>
						<g>
							<defs>
								<path id="XMLID_35_" d="M217.206,191.765c0.866-0.065,1.734-0.014,2.591,0.225c1.778,0.496,3.496,1.251,5.099,2.238
									c1.032,0.635,1.932,1.023,2.763,1.976c3.124,3.578,4.523,7.902,4.082,12.663c-0.153,1.652-0.557,3.336-1.558,4.66
									c-2.515,3.326-7.662,2.915-11.3,2.371c-3.105-0.465-6.102-2.009-8.24-4.315c-1.695-1.828-2.671-4.182-2.997-6.657
									c-0.332-2.518-0.394-5.334,0.407-7.755c0.545-1.646,1.559-2.814,2.97-3.605c1.044-0.585,2.183-0.929,3.318-1.247
									C215.28,192.055,216.242,191.838,217.206,191.765z"/>
							</defs>
							<use xlink:href="#XMLID_35_"  style="overflow:visible;fill:#FFFFFF;"/>
							<clipPath id="XMLID_00000133516939876161357070000005165504523176776089_">
								<use xlink:href="#XMLID_35_"  style="overflow:visible;"/>
							</clipPath>
							<path style="clip-path:url(#XMLID_00000133516939876161357070000005165504523176776089_);fill:#472408;" d="M230.808,205.827
								c0,5.561-4.508,10.068-10.068,10.068c-5.561,0-10.068-4.508-10.068-10.068s4.508-10.068,10.068-10.068
								C226.3,195.758,230.808,200.266,230.808,205.827z"/>
						</g>
						<path style="fill:#472408;" d="M207.686,199.334c-0.275,0.821-0.762,2.595-0.36,3.397c-0.808-1.616-0.881-3.56-0.281-5.257
							c0.06-0.17,0.127-0.338,0.201-0.503c0.876-1.957,2.593-3.12,4.481-4.061c1.463-0.729,3.37-1.158,4.995-1.351
							c2.927-0.348,6,0.334,8.534,1.83c1.351,0.798,2.435,1.984,3.281,3.294c0.432,0.668,0.805,1.374,1.128,2.1
							c0.351,0.79,0.779,1.546,1.07,2.365c0.025,0.069,0.049,0.139,0.071,0.209c-0.09-0.277-0.323-0.563-0.471-0.814
							c-0.888-1.514-2.043-2.999-3.423-4.095c-1.727-1.371-3.787-2.265-5.964-2.61c-0.348-0.055-0.698-0.097-1.049-0.125
							c-2.373-0.195-4.778,0.253-6.959,1.195c-1.202,0.52-2.501,1.195-3.491,2.053c-0.807,0.7-1.502,1.49-1.696,2.534
							c-0.232,1.249-0.357,2.526-0.266,3.797c-0.226-0.531-0.347-1.106-0.353-1.683"/>
						<path style="fill:#FFFFFF;" d="M215.319,199.221c0,1.054-0.854,1.908-1.908,1.908s-1.908-0.854-1.908-1.908
							c0-1.054,0.854-1.908,1.908-1.908S215.319,198.168,215.319,199.221z"/>
						<path style="fill:#472408;" d="M223.257,216.335c-2.396,0.47-4.792-0.109-7.133-0.59c-1.45-0.298-2.887-0.898-4.072-1.823
							c-1.257-0.983-2.126-2.281-2.875-3.66c-0.182-0.335-0.254-0.972-0.481-1.242c1,1.189,2.005,2.384,3.168,3.42
							c1.179,1.049,2.491,1.79,3.972,2.337c0.974,0.359,1.973,0.65,2.988,0.867C220.28,215.955,221.768,216.337,223.257,216.335z"/>
					</g>
				</g>
				<g>
					<g>
						<g>
							<defs>
								<path id="XMLID_33_" d="M265.701,191.765c-0.866-0.065-1.734-0.014-2.591,0.225c-1.778,0.496-3.496,1.251-5.099,2.238
									c-1.032,0.635-1.932,1.023-2.763,1.976c-3.124,3.578-4.523,7.902-4.082,12.663c0.153,1.652,0.557,3.336,1.558,4.66
									c2.515,3.326,7.662,2.915,11.301,2.371c3.105-0.465,6.102-2.009,8.24-4.315c1.695-1.828,2.671-4.182,2.997-6.657
									c0.332-2.518,0.394-5.334-0.407-7.755c-0.545-1.646-1.558-2.814-2.97-3.605c-1.044-0.585-2.183-0.929-3.318-1.247
									C267.627,192.055,266.665,191.838,265.701,191.765z"/>
							</defs>
							<use xlink:href="#XMLID_33_"  style="overflow:visible;fill:#FFFFFF;"/>
							<clipPath id="XMLID_00000078749896794154882340000017009797808243358592_">
								<use xlink:href="#XMLID_33_"  style="overflow:visible;"/>
							</clipPath>
							
								<ellipse transform="matrix(0.987 -0.1607 0.1607 0.987 -29.6668 44.8013)" style="clip-path:url(#XMLID_00000078749896794154882340000017009797808243358592_);fill:#472408;" cx="262.167" cy="205.827" rx="10.068" ry="10.068"/>
						</g>
						<path style="fill:#472408;" d="M275.22,199.334c0.275,0.821,0.762,2.595,0.36,3.397c0.808-1.616,0.881-3.56,0.281-5.257
							c-0.06-0.17-0.127-0.338-0.201-0.503c-0.876-1.957-2.593-3.12-4.481-4.061c-1.463-0.729-3.37-1.158-4.995-1.351
							c-2.928-0.348-6,0.334-8.534,1.83c-1.351,0.798-2.435,1.984-3.281,3.294c-0.432,0.668-0.805,1.374-1.128,2.1
							c-0.351,0.79-0.779,1.546-1.071,2.365c-0.025,0.069-0.048,0.139-0.071,0.209c0.09-0.277,0.323-0.563,0.471-0.814
							c0.887-1.514,2.043-2.999,3.423-4.095c1.727-1.371,3.787-2.265,5.964-2.61c0.348-0.055,0.698-0.097,1.049-0.125
							c2.373-0.195,4.778,0.253,6.959,1.195c1.202,0.52,2.501,1.195,3.491,2.053c0.807,0.7,1.502,1.49,1.696,2.534
							c0.232,1.249,0.357,2.526,0.266,3.797c0.226-0.531,0.347-1.106,0.353-1.683"/>
						<path style="fill:#FFFFFF;" d="M267.588,199.221c0,1.054,0.854,1.908,1.908,1.908c1.054,0,1.908-0.854,1.908-1.908
							c0-1.054-0.854-1.908-1.908-1.908C268.442,197.313,267.588,198.168,267.588,199.221z"/>
						<path style="fill:#472408;" d="M259.65,216.335c2.396,0.47,4.792-0.109,7.133-0.59c1.45-0.298,2.887-0.898,4.072-1.823
							c1.257-0.983,2.126-2.281,2.875-3.66c0.182-0.335,0.254-0.972,0.481-1.242c-1,1.189-2.005,2.384-3.168,3.42
							c-1.179,1.049-2.491,1.79-3.972,2.337c-0.974,0.359-1.973,0.65-2.988,0.867C262.627,215.955,261.139,216.337,259.65,216.335z"
							/>
					</g>
				</g>
				<path style="fill:#FFFFFF;stroke:#592310;stroke-width:0.75;stroke-linecap:round;stroke-miterlimit:10;" d="M257.017,233.486
					c0,8.3-6.73,15.03-15.03,15.03c-8.29,0-15.02-6.73-15.02-15.03H257.017z"/>
			</g>
			
				<path style="fill:#057CCC;stroke:#592310;stroke-width:0.75;stroke-linecap:round;stroke-linejoin:round;stroke-miterlimit:10;" d="
				M201.012,272.61c-0.908,6.765-2.624,13.407-4.842,19.871c-0.26,0.757-0.486,1.707,0.088,2.265c0.205,0.2,0.482,0.307,0.756,0.392
				c3.47,1.089,7.444,1.23,11.037,1.786c1.735,0.269,1.682,0.126,1.422,1.749c-0.141,0.879-0.571,1.795-0.844,2.642
				c-0.691,2.144-1.397,4.284-2.041,6.442c-0.193,0.646-1.282,3.029-0.869,3.693c0.392,0.627,25.335,19.987,33.166,24.764"/>
			
				<path style="fill:#057CCC;stroke:#592310;stroke-width:0.75;stroke-linecap:round;stroke-linejoin:round;stroke-miterlimit:10;" d="
				M241.583,331.781c0,0-10.229,15.273-13.444,31.348c0,0,6.04-15.879,19.484-32.246c13.444-16.366,23.349-20.01,23.462-21.598
				s-3.491-15.421-2.517-15.519c0.974-0.098,22.796-7.988,23.381-8.086c0.585-0.097,1.474-12.815-1.835-21.11"/>
			<path style="fill:none;stroke:#592310;stroke-width:0.75;stroke-linecap:round;stroke-linejoin:round;stroke-miterlimit:10;" d="
				M228.14,363.129c0,0,4.53,70.579,5.591,82.843c1.061,12.264,3.781,91.181,3.781,91.181"/>
			<g>
				
					<path style="fill:#FFFFFF;stroke:#592310;stroke-width:0.75;stroke-linecap:round;stroke-linejoin:round;stroke-miterlimit:10;" d="
					M243.461,384.849c-0.05,1.943-1.666,3.477-3.608,3.426c-1.942-0.05-3.476-1.666-3.426-3.608c0.05-1.943,1.666-3.476,3.608-3.426
					C241.978,381.291,243.512,382.907,243.461,384.849z"/>
				
					<path style="fill:#FFFFFF;stroke:#592310;stroke-width:0.75;stroke-linecap:round;stroke-linejoin:round;stroke-miterlimit:10;" d="
					M245.466,418.017c-0.05,1.943-1.666,3.476-3.608,3.426c-1.942-0.05-3.476-1.666-3.426-3.608c0.05-1.943,1.666-3.476,3.608-3.426
					C243.983,414.46,245.517,416.075,245.466,418.017z"/>
				
					<path style="fill:#FFFFFF;stroke:#592310;stroke-width:0.75;stroke-linecap:round;stroke-linejoin:round;stroke-miterlimit:10;" d="
					M247.471,451.185c-0.05,1.943-1.666,3.477-3.609,3.426c-1.943-0.05-3.476-1.666-3.426-3.609c0.05-1.942,1.666-3.476,3.608-3.426
					C245.988,447.627,247.522,449.243,247.471,451.185z"/>
				
					<path style="fill:#FFFFFF;stroke:#592310;stroke-width:0.75;stroke-linecap:round;stroke-linejoin:round;stroke-miterlimit:10;" d="
					M248.783,485.012c-0.05,1.943-1.666,3.477-3.608,3.426c-1.942-0.05-3.476-1.666-3.426-3.609c0.05-1.943,1.666-3.476,3.609-3.426
					C247.299,481.454,248.833,483.069,248.783,485.012z"/>
			</g>
			
				<path style="fill:#E58811;stroke:#592310;stroke-width:0.75;stroke-linecap:round;stroke-linejoin:round;stroke-miterlimit:10;" d="
				M290.401,165.313c0,0-16.253-9.079-48.977-9.079c-32.725,0-47.66,9.079-47.66,9.079l-0.092,0.178
				c-2.797,5.447-7.057,12.523-4.445,18.043l4.536-0.016c0,0,14.935-9.079,47.66-9.079c32.725,0,48.977,9.079,48.977,9.079
				l0.445-0.96C293.418,177.012,293.256,170.746,290.401,165.313z"/>
			
				<path style="fill:#7DD4BE;stroke:#592310;stroke-width:0.75;stroke-linecap:round;stroke-linejoin:round;stroke-miterlimit:10;" d="
				M302.513,208.926c-3.413-0.001-9.081-4.865-11.732-6.646c-5.159-3.466-9.468-6.347-10.958-12.634
				c-2.731-11.523-6.271-22.855-10.587-33.883c3.423-0.763,9.327,1.793,12.327,3.185c6.674,3.095,7.837,18.472,7.837,18.48
				c-0.12-1.596,14.927-0.053,15.962,0.238c3.94,1.108,7.222,3.358,11.383,4.162c4.549,0.879,9.206,1.012,13.825,1.143
				c-0.279-0.008-4.435,8.367-5.018,9.228c-2.166,3.199-4.695,6.004-7.39,8.755C314.333,204.863,308.264,208.926,302.513,208.926z"
				/>
			<g>
				<g>
					
						<path style="fill:#E58811;stroke:#592310;stroke-width:0.75;stroke-linecap:round;stroke-linejoin:round;stroke-miterlimit:10;" d="
						M188.67,163.63c0,0-10.867,1.335-12.011,2.955c-1.144,1.62-2.383,8.865,0,14.775c0,0,5.719,3.336,12.011,4.194
						C188.67,185.554,190.1,173.353,188.67,163.63z"/>
					
						<path style="fill:#FFE900;stroke:#592310;stroke-width:0.75;stroke-linecap:round;stroke-linejoin:round;stroke-miterlimit:10;" d="
						M178.947,165.462v8.272c0,1.632,1.323,2.955,2.955,2.955c1.632,0,2.955-1.323,2.955-2.955v-9.545
						C182.921,164.51,180.631,164.95,178.947,165.462z"/>
				</g>
				<g>
					
						<path style="fill:#FFE900;stroke:#592310;stroke-width:0.75;stroke-linecap:round;stroke-linejoin:round;stroke-miterlimit:10;" d="
						M291.904,163.63c0,0,10.867,1.335,12.011,2.955c1.144,1.62,2.383,8.865,0,14.775c0,0-5.719,3.336-12.011,4.194
						C291.904,185.554,290.475,173.353,291.904,163.63z"/>
					
						<path style="fill:#FFFFFF;stroke:#592310;stroke-width:0.75;stroke-linecap:round;stroke-linejoin:round;stroke-miterlimit:10;" d="
						M301.628,165.462v8.272c0,1.632-1.323,2.955-2.955,2.955c-1.632,0-2.955-1.323-2.955-2.955v-9.545
						C297.654,164.51,299.944,164.95,301.628,165.462z"/>
				</g>
				<g>
					
						<path style="fill:#057CCC;stroke:#592310;stroke-width:0.75;stroke-linecap:round;stroke-linejoin:round;stroke-miterlimit:10;" d="
						M293.42,177.553c-0.407-2.565-1.016-56.216-1.016-56.216c-3.05-41.681-51.847-37.192-51.847-37.192
						s-48.797-4.489-51.847,37.192c0,0-0.61,53.651-1.017,56.216c-0.406,2.565-5.896,16.245-4.676,17.955
						c1.22,1.71,2.643-0.214,3.863,0c1.22,0.214,7.726-46.597,53.677-46.597c45.95,0,52.456,46.811,53.676,46.597
						c1.22-0.214,2.643,1.71,3.863,0C299.316,193.798,293.827,180.117,293.42,177.553z"/>
					
						<path style="fill:#057CCC;stroke:#592310;stroke-width:0.75;stroke-linecap:round;stroke-linejoin:round;stroke-miterlimit:10;" d="
						M183.017,195.508c1.22,1.71,2.643-0.214,3.863,0c1.22,0.214,7.726-46.597,53.677-46.597c45.95,0,52.456,46.811,53.677,46.597
						c1.22-0.214,2.643,1.71,3.863,0c1.22-1.71-4.27-15.39-4.676-17.955c0,0-13.529-35.011-55.16-35.011
						c-37.687,0-50.567,35.011-50.567,35.011C187.287,180.117,181.797,193.798,183.017,195.508z"/>
					
						<path style="fill:#FFE900;stroke:#592310;stroke-width:0.75;stroke-linecap:round;stroke-linejoin:round;stroke-miterlimit:10;" d="
						M208.907,115.138c20.076-5.558,48.504-4.061,61.971-1.283c9.304,1.92,15.049,15.31,18.59,30.215
						c-0.129-9.168-0.232-17.851-0.286-22.596c-2.322-30.909-31.923-34.247-44.553-34.247c-2.333,0-3.765,0.127-3.776,0.127
						l-0.296,0.027l-0.292-0.027c-0.014-0.001-1.448-0.127-3.78-0.127c-12.629,0-42.23,3.339-44.552,34.247
						c-0.04,3.546-0.108,9.296-0.194,15.802C193.939,128.054,198.686,117.967,208.907,115.138z"/>
				</g>
			</g>
			
				<path style="fill:#057CCC;stroke:#592310;stroke-width:0.75;stroke-linecap:round;stroke-linejoin:round;stroke-miterlimit:10;" d="
				M343.629,265.559c10.766,2.181,21.335,5.343,31.53,9.435c9.747,3.911,22.089,2.853,32.523,3.775
				c6.995,0.618,13.989,1.479,20.843,3.038c4.553,1.036,10.234-0.957,12.272,4.099c2.555,6.34,2.806,13.45,1.571,20.173
				c-1.022,5.566-2.923,11.303-5.576,16.316c-7.462,14.099-26.44,13.603-40.062,17.687c-18.648,5.591-36.868,6.207-55.784,10.811"/>
			
				<path style="fill:#057CCC;stroke:#592310;stroke-width:0.75;stroke-linecap:round;stroke-linejoin:round;stroke-miterlimit:10;" d="
				M435.289,325.41c6.56-9.042,9.974-20.322,9.528-31.484c-0.679-17.012-9.968-30.37-22.648-40.908
				c-14.779-12.283-30.605-23.238-46.408-34.174c-3.774-2.612-13.181,1.117-17.005,3.061c-7.688,3.909-13.139,10.8-15.919,18.905
				c0,0,22.283,25.068,30.241,40.188c3.979,7.56,14.179,28.572,27.997,42.155"/>
			
				<path style="fill:#7DD4BE;stroke:#592310;stroke-width:0.75;stroke-linecap:round;stroke-linejoin:round;stroke-miterlimit:10;" d="
				M333.56,180.557c0,0,58.109,44.997,60.224,47.288c2.115,2.291-12.591,35.162-41.466,36.602c0,0-48.576-53.994-51.955-56.814"/>
			<g>
				
					<path style="fill:#7DD4BE;stroke:#592310;stroke-width:0.75;stroke-linecap:round;stroke-linejoin:round;stroke-miterlimit:10;" d="
					M337.32,183.436c-1.786-5.258-4-10.218-6.05-15.364c-1.47-3.691-2.791-7.755-4.936-11.127
					c-2.367-3.719-6.762-7.449-11.946-5.865c0,0-5.071-3.457-14.2-0.374c0,0-1.127-1.758-6.762-1.873c0,0-5.297-7.327-20.961-4.397
					c0,0-3.87,5.747,7.081,9.016c0,0-6.049,2.592-6.339,4.057c-0.29,1.465,2.758,7.214,10.739,4.958c0,0-3.067,3.804-2.577,4.846
					c0.49,1.042,5.237,4.926,15.297-0.354c0,0-5.421,14.782,7.644,24.332"/>
				<g>
					
						<path style="fill:none;stroke:#592310;stroke-width:0.75;stroke-linecap:round;stroke-linejoin:round;stroke-miterlimit:10;" d="
						M319.982,157.099c0,0-15.293,16.603-23.317,9.86c0,0-0.25-5.319,13.314-13.599"/>
					
						<path style="fill:none;stroke:#592310;stroke-width:0.75;stroke-linecap:round;stroke-linejoin:round;stroke-miterlimit:10;" d="
						M323.187,162.708c0,0-4.074,3.551-12.41,2.221"/>
					
						<path style="fill:none;stroke:#592310;stroke-width:0.75;stroke-linecap:round;stroke-linejoin:round;stroke-miterlimit:10;" d="
						M283.946,162.467c0.333-0.471,4.162-6.634,16.627-11.387"/>
					
						<path style="fill:none;stroke:#592310;stroke-width:0.75;stroke-linecap:round;stroke-linejoin:round;stroke-miterlimit:10;" d="
						M279.546,153.451c0,0,3.797-2.734,13.881-4.618"/>
				</g>
			</g>
			<g>
				
					<path style="fill:#057CCC;stroke:#592310;stroke-width:0.75;stroke-linecap:round;stroke-linejoin:round;stroke-miterlimit:10;" d="
					M122.857,446.439c10.843,0.492,19.03-5.007,25.046-13.619c5.665-8.11,4.979-22.275,4.376-31.906
					c-0.599-9.583-3.851-18.775-7.072-27.82c-0.603-1.693-1.242-3.444-2.504-4.724c-2.738-2.773-9.27-0.983-12.792-0.744
					c-4.32,0.294-8.639,0.588-12.959,0.881c-2.146,0.146-5.64-1.036-7.597-0.226c-1.92,0.794-3.006,4.247-3.886,6.027
					c-2.573,5.206-4.646,10.657-6.199,16.252c-3.361,12.113-5.482,25.833-1.417,38.047c1.476,4.434,5.754,9.216,9.376,12.121
					C111.668,444.288,117.196,446.182,122.857,446.439z"/>
				
					<path style="fill:#7DD4BE;stroke:#592310;stroke-width:0.75;stroke-linecap:round;stroke-linejoin:round;stroke-miterlimit:10;" d="
					M108.943,339.039c-0.221,7.255-1.272,14.472-2.893,21.542c-0.812,3.543-1.82,7.02-2.849,10.504
					c-0.532,1.802-2.34,7.049-1.595,8.646c0.252,0.54,0.729,0.936,1.192,1.31c4.527,3.653,9.326,7.11,14.787,9.112
					c10.423,3.822,34.452-0.534,29.289-16.343c-3.892-11.917-6.07-24.393-6.445-36.924c-5.184,2.999-11.109,3.778-17.009,3.569
					c-2.69-0.095-6.135,0.035-8.71-0.787c-1.963-0.627-4.003-1.917-5.726-3.014C108.981,337.448,108.967,338.243,108.943,339.039z"
					/>
				
					<path style="fill:#7DD4BE;stroke:#592310;stroke-width:0.75;stroke-linecap:round;stroke-linejoin:round;stroke-miterlimit:10;" d="
					M122.456,297.892c1.303-0.776,2.407-4.288,3.095-5.564c1.396-2.589,2.619-5.693,4.439-8.015c1.2-1.531,3.938-3.493,6.033-2.845
					c3.264,1.011,2.632,6.591,2.303,9.117c-1.237,9.498-4.084,20.189-8.35,28.782c-3.408-1.999-4.106-8.886-5.113-12.368
					C123.99,303.985,123.169,300.949,122.456,297.892z"/>
				
					<path style="fill:#E58811;stroke:#592310;stroke-width:0.75;stroke-linecap:round;stroke-linejoin:round;stroke-miterlimit:10;" d="
					M126.884,286.015c0,0,7.2-2.373,8.201-1.604c1,0.77,2.555,11.036-3.711,13.175L126.884,286.015z"/>
				
					<path style="fill:#FFE900;stroke:#592310;stroke-width:0.75;stroke-linecap:round;stroke-linejoin:round;stroke-miterlimit:10;" d="
					M121.286,181.238l-8.603,11.957c-6.641,9.231-9.621,20.599-8.36,31.901l4.746,42.56c0,0,2.28,10.483,5.731,8.427
					c3.451-2.056,0.872-12.09,0.872-12.09l-5.63-35.799c-1.869-11.886,1.003-24.031,7.997-33.821l7.387-10.339
					C124.116,180.925,121.286,181.238,121.286,181.238z"/>
				
					<path style="fill:#E58811;stroke:#592310;stroke-width:0.75;stroke-linecap:round;stroke-linejoin:round;stroke-miterlimit:10;" d="
					M109.068,267.656c-0.487-0.046-2.555,15.628-1.682,18.279c0.873,2.651,12.575,49.473,13.927,51.598
					c1.353,2.125,16.619,3.239,20.892,0.572c4.274-2.666-12.341-48.561-13.094-52.199c-0.753-3.638-2.398-18.531-2.67-19.26
					c-0.272-0.729-4.755-2.195-6.819-2.579c-2.063-0.384-3.952-0.074-3.952-0.074S114.88,268.205,109.068,267.656z"/>
				<g>
					
						<path style="fill:#7DD4BE;stroke:#592310;stroke-width:0.75;stroke-linecap:round;stroke-linejoin:round;stroke-miterlimit:10;" d="
						M112.234,344.159c-4.395-8.252-6.997-17.358-6.8-19.265c0.369-3.566-2.124-8.467,0.918-12.704
						c3.042-4.237,8.164-9.627,11.951-12.156c3.787-2.529,24.402-2.174,26.557-1.136c2.155,1.039,6.432,7.387-1.589,10.662
						c0,0,6.802,5.715,3.091,10.435c0,0,5.536,2.558,3.015,8.243c0,0,7.136,5.157,1.382,9.916c0,0-8.912,2.867-9.394,4.725
						c-0.426,1.644-1.368,13.565-10.341,15.41"/>
					<g>
						
							<path style="fill:none;stroke:#592310;stroke-width:0.75;stroke-linecap:round;stroke-linejoin:round;stroke-miterlimit:10;" d="
							M112.058,313.535c0,0,2.691-2.723,8.502-2.133c0,0,11.167-1.114,13.18-1.258c2.012-0.143,9.531-0.583,9.531-0.583"/>
						
							<path style="fill:none;stroke:#592310;stroke-width:0.75;stroke-linecap:round;stroke-linejoin:round;stroke-miterlimit:10;" d="
							M117.311,324.869c0,0,3.598-2.469,9.069-2.275c0,0,8.161-2.529,10.202-2.559c2.041-0.03,9.78-0.039,9.78-0.039"/>
						
							<path style="fill:none;stroke:#592310;stroke-width:0.75;stroke-linecap:round;stroke-linejoin:round;stroke-miterlimit:10;" d="
							M122.62,335.466c0,0,3.104-2.224,8.694-2.181c0,0,7.289-3.274,9.131-3.616c1.842-0.342,8.933-1.43,8.933-1.43"/>
					</g>
				</g>
			</g>
			<g>
				<g>
					
						<path style="fill:#E58811;stroke:#592310;stroke-width:0.75;stroke-linecap:round;stroke-linejoin:round;stroke-miterlimit:10;" d="
						M202.536,361.802c0,0,4.369,44.574,4.743,45.448c0.374,0.874,0.193,6.978-7.576,8.853c-7.77,1.876-21.499,2.244-21.499,2.244
						s-2.932,0.458-4.309-7.613c-1.377-8.071-6.528-41.278-6.528-41.278L202.536,361.802z"/>
					
						<path style="fill:#FFE900;stroke:#592310;stroke-width:0.75;stroke-linecap:round;stroke-linejoin:round;stroke-miterlimit:10;" d="
						M166.388,355.974c0,0,25.378-3.799,38.381-5.811c0,0,0.634,12.254,0.767,13.525c0.133,1.272-5.615,6.412-6.646,7.345
						c-1.031,0.933-27.895,2.911-27.895,2.911s-2.43-2.507-3.297-3.444C166.833,369.564,166.388,355.974,166.388,355.974z"/>
				</g>
				<g>
					
						<path style="fill:#FFFFFF;stroke:#592310;stroke-width:0.75;stroke-linecap:round;stroke-linejoin:round;stroke-miterlimit:10;" d="
						M176.361,366.198c2.165,3.491-1.865,6.816-4.882,4.027c0,0,0,0,0,0C169.31,366.732,173.344,363.405,176.361,366.198z"/>
					
						<path style="fill:#FFFFFF;stroke:#592310;stroke-width:0.75;stroke-linecap:round;stroke-linejoin:round;stroke-miterlimit:10;" d="
						M198.363,363.771c2.164,3.491-1.865,6.816-4.882,4.027l0,0C191.313,364.306,195.346,360.978,198.363,363.771z"/>
				</g>
			</g>
			<g>
				
					<path style="fill:#E58811;stroke:#592310;stroke-width:0.75;stroke-linecap:round;stroke-linejoin:round;stroke-miterlimit:10;" d="
					M268.857,351.138c-0.105,0.691,4.653,45.287,5.597,46.675c0.944,1.388,1.68,6.668,11.769,7.462
					c10.089,0.793,36.768-1.098,37.593-1.452c0.825-0.355,6.763-1.401,6.613-10.521c-0.151-9.12-4.641-45.364-4.641-45.364
					L268.857,351.138z"/>
				
					<path style="fill:#FFE900;stroke:#592310;stroke-width:0.75;stroke-linecap:round;stroke-linejoin:round;stroke-miterlimit:10;" d="
					M265.386,339.908c0,0,24.661-9.074,62.493-6.66c0,0,0.926,13.474,0.472,14.648c-0.454,1.173-6.179,7.469-7.237,7.823
					c-1.058,0.355-29.766,2.466-46.026,4.708c0,0-7.206-4.951-7.317-5.57C267.659,354.239,265.386,339.908,265.386,339.908z"/>
				<g>
					
						<path style="fill:#FFFFFF;stroke:#592310;stroke-width:0.75;stroke-linecap:round;stroke-linejoin:round;stroke-miterlimit:10;" d="
						M281.419,351.611c-0.154,1.604-1.579,2.78-3.184,2.626c-1.604-0.154-2.78-1.579-2.626-3.184
						c0.154-1.604,1.579-2.78,3.184-2.626C280.397,348.581,281.573,350.006,281.419,351.611z"/>
					
						<path style="fill:#FFFFFF;stroke:#592310;stroke-width:0.75;stroke-linecap:round;stroke-linejoin:round;stroke-miterlimit:10;" d="
						M319.476,346.559c-0.154,1.605-1.579,2.78-3.184,2.626c-1.604-0.154-2.78-1.579-2.626-3.184
						c0.154-1.604,1.579-2.78,3.184-2.626C318.455,343.529,319.63,344.954,319.476,346.559z"/>
				</g>
			</g>
			<g>
				
					<path style="fill:#E58811;stroke:#592310;stroke-width:0.75;stroke-linecap:round;stroke-linejoin:round;stroke-miterlimit:10;" d="
					M146.362,182.187c-3.448-1.213-6.274-3.852-7.552-7.051c-1.278-3.199-0.985-6.903,0.782-9.896
					c-3.108,1.214-6.55,1.961-9.864,1.372c-3.314-0.589-6.443-2.734-7.317-5.747c-0.604,3.831-3.123,7.621-7.076,8.898
					c-3.701,1.196-7.755,0.027-11.467-1.139c1.291,0.405,1.908,5.554,2.093,6.639c0.444,2.609,0.507,5.26-0.316,7.817
					c-0.424,1.319-1.085,2.586-1.961,3.698c-0.829,1.052-1.852,1.965-3.049,2.651c3.018-0.697,6.33-0.367,9.04,1.046
					c5.838,3.042,5.817,9.291,4.672,14.7c2.571-2.49,5.812-5.766,9.93-5.418c4.947,0.419,9.82,1.581,14.369,3.427
					c-0.43-2.262-0.839-4.542-0.8-6.839c0.049-2.889,1.088-5.679,2.587-8.189c0.678-1.134,1.43-2.389,2.319-3.378
					C143.135,184.349,145.762,181.976,146.362,182.187z"/>
				
					<path style="fill:#FFE900;stroke:#592310;stroke-width:0.75;stroke-linecap:round;stroke-linejoin:round;stroke-miterlimit:10;" d="
					M112.237,185.63c-0.479,0.605-1.068,1.13-1.758,1.524c1.738-0.4,3.645-0.207,5.204,0.608c1.559,0.815,2.738,2.261,3.063,3.889
					c0.347,1.736-0.229,3.178-0.727,4.847c0.326-1.09,2.638-2.463,3.688-2.869c1.544-0.597,3.13-0.708,4.767-0.39
					c2.446,0.476,4.803,1.343,6.934,2.552c-0.439-1.526-0.863-3.068-0.971-4.645c-0.232-3.399,1.139-6.397,4.377-8.132
					c-1.984-0.701-3.61-2.222-4.343-4.065c-0.733-1.843-0.562-3.975,0.458-5.698c-1.791,0.697-3.773,1.125-5.681,0.783
					c-1.908-0.341-3.708-1.579-4.209-3.314c-0.351,2.205-1.804,4.386-4.082,5.119c-2.132,0.686-4.465,0.01-6.602-0.663
					c0.743,0.234,1.094,3.199,1.2,3.824c0.254,1.503,0.287,3.029-0.188,4.501C113.124,184.262,112.743,184.991,112.237,185.63z"/>
			</g>
		</g>
	</g>
</g>
</svg>
